<?xml version="1.0" encoding="UTF-8" standalone="no"?>
<!DOCTYPE svg PUBLIC "-//W3C//DTD SVG 1.1//EN" "http://www.w3.org/Graphics/SVG/1.1/DTD/svg11.dtd">
<svg xmlns="http://www.w3.org/2000/svg" xmlns:xlink="http://www.w3.org/1999/xlink" version="1.1" width="293.985pt" height="245.538pt" viewBox="0 0 293.985 245.538">
<g enable-background="new">
<g id="Layer-1" data-name="Layer">
<clipPath id="cp0">
<path transform="matrix(1,0,0,-1,0,245.538)" d="M 0 245.538 L 293.985 245.538 L 293.985 0 L 0 0 Z "/>
</clipPath>
<g clip-path="url(#cp0)">
<path transform="matrix(1,0,0,-1,200.3115,114.5004)" d="M 0 0 L -5.564 -5.538 L -7.44 -.096 L -14.256 -.096 L -9.812 -10.184 L -14.229 -14.562 L -8.386 -14.562 C -8.386 -14.562 -7.251 -14.422 -6.778 -14.256 C -6.308 -14.086 -5.638 -13.406 -5.638 -13.406 L 7.687 -.017 Z M -73.43 -8.385 L -69.453 -4.596 L -69.072 -8.29 Z M -41.716 -.096 L -44.937 -7.344 L -49.29 -.096 L -56.91 -.096 L -61.219 -9.499 L -63.396 0 L -70.213 0 C -70.213 0 -71.206 -.008 -72.054 -.369 C -72.714 -.65 -73.301 -1.139 -73.301 -1.139 L -79.68 -6.759 C -83.623 -9.862 -90.525 -11.654 -92.454 -11.742 C -101.638 -12.159 -103.555 -5.888 -102.916 -2.924 C -101.279 4.734 -89.398 6.546 -83.156 6.546 C -80.201 6.546 -77.775 5.963 -75.9 5.446 L -74.094 8.661 L -75.418 8.94 C -77.067 9.147 -79.631 9.702 -84.01 9.715 C -101.714 9.774 -110.804 4.805 -113.574 -1.565 C -116.697 -8.76 -111.42 -15.272 -96.588 -15.272 C -93.896 -15.272 -88.575 -15.037 -83.573 -13.234 L -78.742 -13.234 L -76.271 -11.038 L -68.791 -11.038 L -68.476 -13.385 L -60.327 -13.385 L -60.333 -13.33 L -55.981 -13.33 L -52.507 -5.733 L -47.954 -13.326 L -40.886 -13.33 L -34.825 -.096 Z M -20.695 -6.491 C -21.551 -9.805 -26.449 -10.023 -28.112 -10.023 L -30.089 -10.023 L -27.161 -3.406 L -25.187 -3.406 C -23.381 -3.406 -19.989 -3.745 -20.695 -6.491 M -21.844 -.096 L -32.99 -.096 L -39.055 -13.33 L -27.91 -13.33 C -18.99 -13.402 -15.366 -9.974 -14.162 -7.344 C -12.829 -4.432 -13.98 -.096 -21.844 -.096 " fill="#00aeef"/>
</g>
</g>
</g>
</svg>
