<?xml version="1.0" encoding="UTF-8" standalone="no"?>
<!DOCTYPE svg PUBLIC "-//W3C//DTD SVG 1.1//EN" "http://www.w3.org/Graphics/SVG/1.1/DTD/svg11.dtd">
<svg xmlns="http://www.w3.org/2000/svg" xmlns:xlink="http://www.w3.org/1999/xlink" version="1.1" width="850.394pt" height="850.394pt" viewBox="0 0 850.394 850.394">
<g enable-background="new">
<g id="Layer-1" data-name="Layer">
<path transform="matrix(1,0,0,-1,0,850.394)" d="M 0 2.039 L 850.394 2.039 L 850.394 850.393 L 0 850.393 Z " fill="#ffffff"/>
<clipPath id="cp0">
<path transform="matrix(1,0,0,-1,0,850.394)" d="M 0 850.394 L 850.394 850.394 L 850.394 0 L 0 0 Z "/>
</clipPath>
<g clip-path="url(#cp0)">
<path transform="matrix(1,0,0,-1,520.5176,414.22499)" d="M 0 0 C 9.99 0 18.533 -6.435 22.016 -15.54 L -22.034 -15.54 C -18.563 -6.435 -10.01 0 0 0 M 41.847 -28.937 C 42.014 -27.453 42.102 -25.948 42.102 -24.419 C 42.102 -1.363 22.988 17.329 -.59 17.329 C -24.168 17.329 -43.282 -1.363 -43.282 -24.419 C -43.282 -47.48 -24.168 -66.162 -.59 -66.162 C 17.344 -66.162 32.673 -55.368 39.005 -40.038 L 20.609 -36.813 C 16.529 -44.277 8.818 -49.3 0 -49.3 C -11.699 -49.3 -21.396 -40.5 -23.343 -28.937 Z "/>
<path transform="matrix(1,0,0,-1,0,850.394)" d="M 465.762 451.747 L 443.962 451.747 L 443.962 371.51203 L 465.762 371.51203 Z "/>
<path transform="matrix(1,0,0,-1,454.8672,365.92909)" d="M 0 0 C -6.726 0 -12.163 -5.453 -12.163 -12.164 C -12.163 -18.857 -6.726 -24.307 0 -24.307 C 6.705 -24.307 12.153 -18.857 12.153 -12.164 C 12.153 -5.453 6.705 0 0 0 "/>
<path transform="matrix(1,0,0,-1,310.5181,372.91938)" d="M 0 0 L 0 -43.193 L -46.999 -43.193 L -46.999 0 L -70.833 0 L -70.833 -105.896 L -46.999 -105.896 L -46.999 -62.701 L 0 -62.701 L 0 -105.896 L 23.848 -105.896 L 23.848 0 Z "/>
<path transform="matrix(1,0,0,-1,388.2637,462.79829)" d="M 0 0 C -13.492 0 -24.4 10.796 -24.4 24.124 C -24.4 37.457 -13.492 48.267 0 48.267 C 13.483 48.267 24.408 37.457 24.408 24.124 C 24.408 10.796 13.483 0 0 0 M 20.656 64.117 L 20.656 59.815 C 14.319 63.646 6.896 65.858 -1.068 65.858 C -24.179 65.858 -42.925 47.183 -42.925 24.135 C -42.925 1.093 -24.179 -17.589 -1.068 -17.589 C 6.686 -17.589 13.926 -15.485 20.155 -11.837 L 20.155 -16.018 L 41.428 -16.018 L 41.428 64.117 Z "/>
<path transform="matrix(1,0,0,-1,607.7012,391.18888)" d="M 0 0 C -20.077 -3.509 -35.338 -20.982 -35.573 -42.042 L -35.573 -87.693 L -14.699 -87.693 L -14.688 -41.182 C -14.688 -30.533 -6.695 -21.747 3.608 -20.485 Z "/>
</g>
</g>
</g>
</svg>
